<svg width="24" height="24" viewBox="0 0 24 24" fill="none" xmlns="http://www.w3.org/2000/svg">
<path d="M16.455 7.45522C16.6663 7.25406 16.9475 7.14284 17.2392 7.14505C17.531 7.14726 17.8104 7.26271 18.0187 7.46706C18.2269 7.6714 18.3476 7.94864 18.3553 8.24029C18.363 8.53193 18.2571 8.81517 18.06 9.03022L12.075 16.5152C11.9721 16.6261 11.8479 16.715 11.7098 16.7768C11.5717 16.8385 11.4226 16.8718 11.2714 16.8746C11.1201 16.8774 10.9699 16.8497 10.8296 16.7931C10.6894 16.7365 10.5619 16.6522 10.455 16.5452L6.48599 12.5762C6.37546 12.4732 6.28681 12.349 6.22532 12.211C6.16383 12.073 6.13077 11.9241 6.1281 11.773C6.12544 11.622 6.15323 11.4719 6.20981 11.3318C6.26639 11.1917 6.35061 11.0645 6.45743 10.9577C6.56426 10.8508 6.69151 10.7666 6.8316 10.71C6.97168 10.6535 7.12172 10.6257 7.27278 10.6283C7.42383 10.631 7.5728 10.6641 7.7108 10.7256C7.8488 10.787 7.973 10.8757 8.07599 10.9862L11.217 14.1257L16.4265 7.48822C16.4359 7.47668 16.4459 7.46566 16.4565 7.45522H16.455Z" fill="white"/>
</svg>
